<svg xmlns="http://www.w3.org/2000/svg" width="32" height="32" viewBox="0 0 30 38"><defs><style>.cls-1{fill:#fff}.cls-2{fill:#3c3c3c}.cls-3{fill:#dd0712}</style></defs><title>pin-station-travaux</title><g id="offre-abo-on"><path d="M15,36.74C12.28,34.59,1.07,25.14,1.07,14.93a13.93,13.93,0,0,1,27.86,0C28.93,25.14,17.72,34.59,15,36.74Z" class="cls-1"/><path d="M15,2A12.94,12.94,0,0,1,27.93,14.93c0,9.12-9.54,17.75-12.93,20.53C11.61,32.69,2.07,24.08,2.07,14.93A12.94,12.94,0,0,1,15,2m0-2A14.93,14.93,0,0,0,.07,14.93C.07,27.14,15,38,15,38S29.93,27.14,29.93,14.93A14.93,14.93,0,0,0,15,0Z" class="cls-2"/><path d="M21.48,20.13h-.72l-.94-2.88H10.25l-1,2.88H8.52a.72.72,0,0,0,0,1.44h13a.72.72,0,1,0,0-1.44Z" class="cls-3"/><polygon points="18.1 12.21 11.9 12.21 10.97 15.09 19.03 15.09 18.1 12.21" class="cls-3"/><polygon points="16.44 7.17 13.56 7.17 12.62 10.05 17.38 10.05 16.44 7.17" class="cls-3"/></g></svg>