<svg xmlns="http://www.w3.org/2000/svg" width="32" height="32" viewBox="0 0 30 38"><defs><style>.cls-1{fill:#fff}.cls-2{fill:#3c3c3c}.cls-3{fill:#41ae5d}.cls-4{fill:#c2c2c2}</style></defs><title>pin-station-presquevide-ssombre</title><g id="offre-abo-on"><path d="M15,36.74C12.28,34.59,1.07,25.13,1.07,14.93a13.93,13.93,0,0,1,27.86,0C28.93,25.15,17.72,34.6,15,36.74Z" class="cls-1"/><path d="M15,2A12.94,12.94,0,0,1,27.93,14.93c0,9.12-9.54,17.75-12.93,20.53C11.61,32.69,2.07,24.08,2.07,14.93A12.94,12.94,0,0,1,15,2m0-2A14.93,14.93,0,0,0,.07,14.93C.07,27.14,15,38,15,38S29.93,27.14,29.93,14.93A14.93,14.93,0,0,0,15,0Z" class="cls-2"/><path d="M15,24.61a10,10,0,1,1,10-10A10,10,0,0,1,15,24.61Z" class="cls-3"/><path d="M15,5.07a9.52,9.52,0,1,1-9.52,9.52A9.53,9.53,0,0,1,15,5.07m0-1A10.52,10.52,0,1,0,25.52,14.59,10.52,10.52,0,0,0,15,4.07Z" class="cls-4"/></g></svg>